<?xml version="1.0" encoding="utf-8"?>
<!-- Generator: Adobe Illustrator 23.1.0, SVG Export Plug-In . SVG Version: 6.00 Build 0)  -->
<svg version="1.1" id="레이어_1" xmlns="http://www.w3.org/2000/svg" xmlns:xlink="http://www.w3.org/1999/xlink" x="0px"
	 y="0px" viewBox="0 0 259.02 73.24" style="enable-background:new 0 0 259.02 73.24;" xml:space="preserve">
<style type="text/css">
	.st0{fill:none;stroke:#B8DA4E;stroke-miterlimit:10;}
	.st1{fill:none;stroke:#B8DA4E;stroke-width:2;stroke-miterlimit:10;}
	.st2{fill:#FFFFFF;stroke:#FFFFFF;stroke-width:0.25;stroke-miterlimit:10;}
	.st3{fill:#B8DA4E;}
	.st4{fill:none;}
	.st5{fill:#5A9C1F;}
	.st6{fill:#FFFFFF;}
	.st7{fill:#99CC00;stroke:#99CC00;stroke-width:3;stroke-miterlimit:10;}
	.st8{fill:#FFFFFF;stroke:#FFFFFF;stroke-width:2;stroke-miterlimit:10;}
	.st9{fill:none;stroke:#FFFFFF;stroke-width:2;stroke-miterlimit:10;}
	.st10{fill:none;stroke:#DEEAAD;stroke-width:2;stroke-miterlimit:10;}
	.st11{fill:#DEEAAD;}
</style>
<path class="st0" d="M134.21,31.4h-9.85c-5.14,0-9.3-4.76-9.3-10.64v0c0-1.8,0.43-3.57,1.17-5.15c2.76-5.87,2.15-9.46,6.05-5.62
	c1.65,1.62,3.78,2.44,5.95,2.44l2.19,0c2.21,0,4.31-0.96,6.01-2.59c3.73-3.58,3.17-0.01,5.9,5.78c0.75,1.58,1.17,3.35,1.17,5.15v0
	C143.51,26.64,139.35,31.4,134.21,31.4z"/>
<path class="st1" d="M134.72,19.53h-0.03c-0.37,0-0.66-0.3-0.66-0.66v-1.64c0-0.37,0.3-0.66,0.66-0.66h0.03
	c0.37,0,0.66,0.3,0.66,0.66v1.64C135.38,19.23,135.08,19.53,134.72,19.53z"/>
<path class="st0" d="M124.05,19.53h-0.35c-0.28,0-0.5-0.22-0.5-0.5v-1.97c0-0.28,0.22-0.5,0.5-0.5h0.35c0.28,0,0.5,0.22,0.5,0.5
	v1.97C124.55,19.3,124.32,19.53,124.05,19.53z"/>
<line class="st2" x1="131.81" y1="17.81" x2="137.6" y2="19.76"/>
<ellipse class="st2" cx="135.38" cy="16.56" rx="0.68" ry="0.74"/>
<path class="st1" d="M123.87,19.53L123.87,19.53c-0.37,0-0.68-0.3-0.68-0.68v-1.61c0-0.37,0.3-0.68,0.68-0.68l0,0
	c0.37,0,0.68,0.3,0.68,0.68v1.61C124.55,19.22,124.24,19.53,123.87,19.53z"/>
<line class="st2" x1="120.97" y1="17.81" x2="126.77" y2="19.76"/>
<ellipse class="st2" cx="124.55" cy="16.56" rx="0.68" ry="0.74"/>
<rect x="128.51" y="3.4" class="st3" width="1" height="9"/>
<ellipse transform="matrix(0.9243 -0.3816 0.3816 0.9243 9.1133 50.7491)" class="st3" cx="132.51" cy="2.4" rx="4" ry="2"/>
<ellipse transform="matrix(0.3816 -0.9243 0.9243 0.3816 75.3963 117.4927)" class="st3" cx="125.51" cy="2.4" rx="2" ry="4"/>
<polygon class="st4" points="211.83,28.46 216.19,28.46 216.19,28.46 211.83,28.46 "/>
<g>
	<path class="st3" d="M23.7,45.59c-0.09,0.19-0.2,0.36-0.34,0.52c-0.14,0.15-0.31,0.29-0.51,0.41c-0.14,0.14-0.3,0.24-0.5,0.29
		c-0.19,0.05-0.39,0.07-0.6,0.07c-0.34,0.05-0.66,0.04-0.96-0.04c-0.3-0.07-0.55-0.27-0.75-0.61c-0.14-0.14-0.23-0.32-0.27-0.54
		c-0.05-0.21-0.09-0.39-0.14-0.54c-0.05-0.14-0.08-0.33-0.1-0.57c-0.02-0.24-0.03-0.43-0.03-0.57v-6.46h-7.27
		c-0.55-0.07-1.02-0.14-1.43-0.21c-0.52-0.17-0.91-0.48-1.16-0.93c-0.11-0.19-0.2-0.39-0.27-0.61s-0.1-0.43-0.1-0.64
		c0.05-0.21,0.11-0.42,0.19-0.63c0.08-0.2,0.21-0.38,0.39-0.52c0.14-0.21,0.34-0.36,0.61-0.43c0.14-0.05,0.26-0.08,0.38-0.11
		c0.11-0.02,0.24-0.06,0.38-0.11c0.11,0,0.22-0.01,0.31-0.04c0.09-0.02,0.19-0.04,0.31-0.04H26.3v-7.18
		c-0.05-0.19-0.06-0.34-0.03-0.46c0.02-0.12,0.03-0.25,0.03-0.39c-0.05-0.21-0.06-0.42-0.05-0.63c0.01-0.2-0.02-0.4-0.09-0.59
		c-0.09-0.19-0.18-0.31-0.27-0.36c-0.09-0.05-0.25-0.07-0.48-0.07c-0.34-0.05-0.7-0.06-1.08-0.04c-0.38,0.02-0.76,0.04-1.14,0.04
		h-8.91c-0.36,0-0.82-0.07-1.37-0.21c-0.46-0.14-0.82-0.43-1.09-0.86c-0.05-0.07-0.09-0.16-0.14-0.27
		c-0.05-0.11-0.07-0.24-0.07-0.41c-0.05-0.12-0.07-0.24-0.07-0.38c0-0.13,0-0.27,0-0.41c0.05-0.26,0.1-0.51,0.17-0.73
		c0.07-0.23,0.19-0.43,0.38-0.63c0.14-0.12,0.28-0.21,0.44-0.29c0.16-0.07,0.33-0.14,0.51-0.21c0.34-0.14,0.71-0.21,1.09-0.21
		c0.18-0.05,0.36-0.07,0.55-0.07s0.36,0,0.55,0h9.02c0.34,0.05,0.69,0.06,1.06,0.04c0.36-0.02,0.72-0.04,1.06-0.04
		c0.18,0,0.37,0,0.56,0s0.39,0.02,0.6,0.07c0.41,0,0.82,0.07,1.23,0.21c0.2,0.05,0.39,0.11,0.56,0.2c0.17,0.08,0.32,0.18,0.46,0.3
		c0.32,0.26,0.55,0.62,0.68,1.07c0.11,0.31,0.17,0.55,0.17,0.71c0.05,0.12,0.08,0.24,0.1,0.38c0.02,0.13,0.03,0.26,0.03,0.38
		c0.05,0.33,0.07,0.64,0.07,0.93s0,0.6,0,0.93v2.86c0.05,0.19,0.06,0.44,0.03,0.73c-0.02,0.3-0.03,0.55-0.03,0.77v4.82h1.4
		c0.21,0.05,0.39,0.08,0.56,0.11c0.17,0.02,0.35,0.06,0.53,0.11c0.39,0.14,0.68,0.36,0.89,0.64c0.27,0.29,0.41,0.69,0.41,1.21
		c0,0.31-0.03,0.57-0.08,0.77c-0.06,0.2-0.21,0.41-0.46,0.63c-0.14,0.14-0.31,0.26-0.53,0.34c-0.22,0.08-0.45,0.16-0.7,0.23
		c-0.27,0.07-0.67,0.13-1.18,0.16c-0.51,0.04-0.92,0.05-1.21,0.05h-6.35v5.36c-0.05,0.31-0.07,0.58-0.07,0.82
		c0,0.24-0.02,0.43-0.07,0.57c0,0.21-0.03,0.43-0.09,0.64C23.83,45.16,23.77,45.38,23.7,45.59z"/>
	<path class="st3" d="M56.11,20.7c0.34,0,0.72,0.06,1.13,0.18c0.32,0.12,0.58,0.42,0.79,0.89c0.18,0.62,0.11,1.23-0.21,1.82
		c-0.09,0.12-0.2,0.23-0.32,0.34c-0.13,0.11-0.25,0.21-0.36,0.3c-0.14,0.05-0.3,0.1-0.48,0.14c-0.18,0.05-0.36,0.07-0.55,0.07
		c-0.18,0.05-0.35,0.07-0.51,0.07c-0.16,0-0.36-0.02-0.61-0.07h-1.09l-6.46-0.11c-0.46,0-0.84-0.05-1.16-0.14
		c-0.32-0.09-0.57-0.21-0.75-0.36c-0.18-0.19-0.32-0.4-0.43-0.64c-0.1-0.24-0.18-0.52-0.22-0.86c0-0.4,0.18-0.8,0.55-1.18
		c0.18-0.19,0.37-0.31,0.56-0.38c0.19-0.06,0.42-0.09,0.67-0.09h0.51h1.02h0.92c0.25,0,0.38-0.04,0.38-0.11
		c0-0.09,0.02-0.17,0.05-0.23s0.05-0.11,0.05-0.16v-0.39c0-0.24,0.03-0.45,0.1-0.64c0.07-0.19,0.13-0.36,0.17-0.5
		c0.09-0.12,0.2-0.24,0.34-0.38c0.14-0.13,0.3-0.26,0.48-0.38c0.16-0.07,0.35-0.13,0.56-0.16s0.43-0.04,0.65,0s0.41,0.11,0.58,0.21
		c0.17,0.11,0.3,0.26,0.39,0.45c0.14,0.19,0.21,0.37,0.21,0.54c0.05,0.05,0.07,0.12,0.09,0.21c0.01,0.1,0.02,0.19,0.02,0.29
		c0.07,0.17,0.07,0.36,0,0.57c0,0.1,0,0.2,0,0.3c0,0.11,0.02,0.23,0.07,0.38h1.09h0.65h0.68H56.11z M52.59,25.81
		c0.48,0.05,0.92,0.15,1.31,0.3c0.4,0.16,0.79,0.38,1.18,0.66c0.32,0.29,0.62,0.61,0.9,0.96c0.28,0.36,0.55,0.77,0.8,1.25
		c0.32,0.81,0.57,1.83,0.75,3.07c0.11,0.6,0.19,1.17,0.22,1.73c0.03,0.56,0.05,1.14,0.05,1.73s-0.02,1.18-0.07,1.75
		c-0.05,0.57-0.14,1.12-0.27,1.64c-0.09,0.57-0.2,1.1-0.32,1.59c-0.13,0.49-0.28,0.95-0.46,1.38c-0.25,0.48-0.52,0.89-0.8,1.23
		c-0.28,0.34-0.64,0.65-1.08,0.91c-0.8,0.48-1.65,0.76-2.56,0.86c-0.91,0.07-1.83-0.08-2.77-0.46c-0.87-0.29-1.57-0.85-2.12-1.68
		c-0.46-0.67-0.82-1.37-1.09-2.11c-0.27-0.74-0.46-1.54-0.55-2.39c-0.05-0.43-0.09-0.86-0.14-1.29c-0.05-0.43-0.07-0.85-0.07-1.25
		s0.01-0.79,0.02-1.14c0.01-0.36,0.04-0.74,0.09-1.14c0-0.38,0.03-0.76,0.1-1.14c0.07-0.38,0.16-0.77,0.27-1.18
		c0.41-1.69,1.17-3.02,2.29-3.98C49.41,26.15,50.84,25.71,52.59,25.81z M52.36,40.91c0.36-0.07,0.69-0.26,0.99-0.57
		c0.14-0.19,0.27-0.39,0.39-0.59c0.12-0.2,0.23-0.42,0.32-0.66c0.11-0.26,0.19-0.52,0.24-0.79c0.05-0.26,0.09-0.51,0.14-0.75
		c0.04-0.29,0.07-0.55,0.08-0.8c0.01-0.25,0.02-0.49,0.02-0.73v-1.39c-0.05-0.26-0.08-0.51-0.1-0.75c-0.02-0.24-0.06-0.49-0.1-0.75
		c-0.05-0.24-0.09-0.48-0.14-0.71c-0.05-0.24-0.13-0.45-0.24-0.64c-0.09-0.19-0.18-0.38-0.27-0.57c-0.09-0.19-0.21-0.36-0.34-0.5
		c-0.14-0.09-0.28-0.17-0.43-0.21c-0.15-0.05-0.31-0.09-0.5-0.14c-0.18-0.05-0.36-0.05-0.55-0.02c-0.18,0.04-0.36,0.08-0.55,0.13
		c-0.18,0.05-0.35,0.1-0.51,0.14c-0.16,0.05-0.33,0.14-0.51,0.29c-0.23,0.19-0.43,0.49-0.61,0.89c-0.32,1-0.48,1.95-0.48,2.86
		c0,0.55,0.01,1.07,0.02,1.57c0.01,0.5,0.06,1.02,0.15,1.57c0.05,0.24,0.11,0.49,0.21,0.77c0.09,0.27,0.18,0.55,0.27,0.84
		c0.09,0.24,0.2,0.47,0.34,0.7c0.14,0.23,0.3,0.41,0.48,0.55c0.05,0.05,0.09,0.08,0.14,0.11c0.05,0.02,0.13,0.06,0.24,0.11
		c0.05,0,0.11,0,0.19,0s0.17,0.02,0.26,0.07h0.48H52.36z M69.64,42.56c0.05,0.33,0.06,0.67,0.03,1.02c-0.02,0.34-0.06,0.68-0.1,1.02
		c-0.07,0.52-0.25,0.95-0.55,1.27c-0.3,0.32-0.63,0.51-0.99,0.57s-0.72-0.03-1.08-0.27c-0.35-0.24-0.62-0.64-0.8-1.21
		c-0.11-0.41-0.17-0.81-0.17-1.21c-0.05-0.19-0.07-0.39-0.09-0.59c-0.01-0.2-0.02-0.4-0.02-0.59v-8.29h-2.22v8.46
		c0.05,0.31,0.06,0.61,0.03,0.89c-0.02,0.29-0.03,0.58-0.03,0.89c-0.05,0.29-0.12,0.57-0.22,0.84c-0.1,0.27-0.25,0.5-0.44,0.68
		c-0.19,0.18-0.42,0.31-0.68,0.39s-0.58,0.08-0.94-0.02c-0.41-0.17-0.73-0.43-0.97-0.8c-0.24-0.37-0.38-0.77-0.43-1.2
		c-0.05-0.31-0.07-0.61-0.07-0.89s0-0.57,0-0.86V22.06v-0.18v-0.32v-1.07c0-0.36,0.06-0.74,0.17-1.14c0.2-0.4,0.4-0.71,0.58-0.93
		c0.18-0.31,0.44-0.51,0.79-0.61c0.3-0.05,0.55-0.04,0.77,0.02c0.22,0.06,0.39,0.18,0.53,0.38c0.14,0.17,0.25,0.34,0.34,0.52
		c0.09,0.18,0.19,0.39,0.31,0.63c0.05,0.24,0.08,0.48,0.12,0.73s0.05,0.52,0.05,0.8c0.05,0.31,0.07,0.61,0.09,0.89
		c0.01,0.29,0.02,0.58,0.02,0.89v1.68v5.61h2.22v-8.07V20.7c0-0.19,0.01-0.4,0.02-0.63c0.01-0.23,0.04-0.43,0.09-0.63
		c0.07-0.43,0.25-0.77,0.55-1.04c0.2-0.29,0.53-0.49,0.99-0.61c0.27,0,0.51,0.04,0.7,0.11c0.19,0.07,0.36,0.2,0.5,0.39
		c0.14,0.12,0.27,0.27,0.39,0.46c0.12,0.19,0.21,0.42,0.26,0.68c0.05,0.24,0.09,0.48,0.14,0.73c0.05,0.25,0.09,0.52,0.14,0.8
		c0,0.26,0.02,0.53,0.05,0.8c0.03,0.27,0.05,0.57,0.05,0.88c-0.05,0.24-0.07,0.46-0.09,0.68c-0.01,0.21-0.02,0.42-0.02,0.61V42.56z"
		/>
	<path class="st3" d="M83.71,37.77c-0.32-0.02-0.64-0.09-0.96-0.2c-0.32-0.11-0.61-0.32-0.89-0.63c-0.27-0.29-0.41-0.7-0.41-1.25
		c0-0.5,0.14-0.92,0.41-1.25c0.16-0.19,0.36-0.33,0.6-0.43c0.24-0.1,0.47-0.17,0.7-0.21c0.23-0.05,0.43-0.07,0.6-0.07
		c0.17,0,0.27,0,0.29,0h13.42c0.46,0,0.93,0.02,1.43,0.07c0.5,0.05,0.92,0.24,1.26,0.57c0.2,0.21,0.35,0.44,0.43,0.68
		c0.08,0.24,0.12,0.5,0.12,0.79c0,0.36-0.08,0.68-0.24,0.98s-0.4,0.51-0.72,0.63c-0.41,0.19-0.83,0.3-1.26,0.34s-0.87,0.07-1.3,0.09
		c-0.68,0.02-1.2,0.05-1.55,0.07C95.29,37.97,95,37.99,94.76,38c-0.24,0.01-0.47,0.02-0.7,0.02s-0.55,0-0.96,0l-0.03,5.68
		c0,0.69-0.21,1.29-0.61,1.79c-0.41,0.5-0.93,0.73-1.57,0.68c-0.25-0.02-0.49-0.07-0.72-0.14c-0.23-0.07-0.43-0.18-0.61-0.34
		c-0.18-0.15-0.33-0.37-0.44-0.64c-0.11-0.27-0.17-0.64-0.17-1.09l-0.1-5.96c-0.87-0.02-1.69-0.05-2.46-0.09
		C85.6,37.86,84.71,37.82,83.71,37.77z M95.49,17.23c0.91,0,1.68,0.06,2.31,0.18c0.63,0.12,1.13,0.42,1.52,0.89
		c0.11,0.14,0.19,0.33,0.22,0.57c0.03,0.24,0.03,0.48,0,0.73s-0.1,0.48-0.21,0.7s-0.25,0.37-0.43,0.46
		c-0.18,0.07-0.4,0.15-0.65,0.23c-0.25,0.08-0.47,0.14-0.65,0.16c-0.32,0.02-0.64,0.03-0.97,0.02c-0.33-0.01-0.66-0.02-0.97-0.02
		h-2.25c-0.02,0.5-0.03,0.91-0.03,1.21c0,0.31,0,0.6,0.02,0.88c0.01,0.27,0.02,0.44,0.02,0.48c0.11,0.12,0.32,0.32,0.61,0.59
		c0.3,0.27,0.55,0.51,0.75,0.7c0.23,0.19,0.46,0.4,0.7,0.63c0.24,0.23,0.48,0.47,0.73,0.73c0.16,0.17,0.31,0.33,0.44,0.48
		c0.14,0.16,0.26,0.29,0.38,0.41c0.43,0.45,0.87,0.94,1.3,1.46c0.43,0.52,0.73,1.06,0.89,1.61c0.07,0.21,0.08,0.45,0.03,0.71
		c-0.05,0.26-0.19,0.49-0.44,0.68c-0.39,0.24-0.8,0.36-1.23,0.36c-0.5,0-0.98-0.11-1.43-0.32c-0.46-0.21-0.82-0.43-1.09-0.64
		c-0.43-0.33-0.83-0.68-1.2-1.05c-0.37-0.37-0.73-0.74-1.09-1.13c-0.25-0.26-0.54-0.57-0.85-0.91c-0.32-0.34-0.64-0.65-0.96-0.91
		l-0.92,0.96c-0.16,0.17-0.32,0.33-0.48,0.48c-0.16,0.15-0.31,0.32-0.44,0.48c-0.3,0.33-0.6,0.67-0.92,1.02
		c-0.32,0.35-0.68,0.67-1.09,0.98c-0.93,0.71-1.81,1.07-2.63,1.07c-0.11,0-0.21,0-0.29,0c-0.08,0-0.18-0.02-0.29-0.07
		c-0.5-0.12-0.83-0.33-0.99-0.64c-0.16-0.26-0.21-0.56-0.15-0.89c0.06-0.33,0.15-0.63,0.29-0.89c0.18-0.26,0.39-0.52,0.61-0.77
		c0.23-0.25,0.46-0.51,0.68-0.77c0.21-0.24,0.53-0.58,0.97-1.02c0.44-0.44,0.89-0.89,1.35-1.36c0.46-0.46,0.88-0.89,1.26-1.27
		c0.39-0.38,0.63-0.62,0.72-0.71v-2.57h-2.19c-0.27,0-0.59,0.01-0.96,0.02c-0.36,0.01-0.72-0.01-1.08-0.05
		c-0.35-0.05-0.68-0.15-0.97-0.3c-0.3-0.15-0.51-0.41-0.65-0.77c-0.11-0.26-0.19-0.56-0.22-0.89c-0.03-0.33-0.02-0.64,0.05-0.93
		c0.09-0.33,0.3-0.57,0.62-0.7c0.32-0.13,0.63-0.22,0.92-0.27L95.49,17.23z M97.88,43.34c-0.2-0.02-0.42-0.07-0.63-0.13
		c-0.22-0.06-0.42-0.16-0.61-0.29c-0.19-0.13-0.36-0.31-0.5-0.54s-0.22-0.52-0.24-0.88c-0.05-0.43-0.02-0.8,0.08-1.13
		c0.1-0.32,0.42-0.61,0.94-0.88c0.21-0.12,0.48-0.19,0.84-0.21c0.35-0.02,0.65-0.04,0.91-0.04h3.86V21.81c0-0.26,0-0.56,0-0.89
		c0-0.33,0.02-0.67,0.07-1c0.04-0.33,0.11-0.64,0.19-0.91c0.08-0.27,0.2-0.49,0.36-0.66c0.25-0.26,0.51-0.42,0.79-0.46
		c0.27-0.05,0.57-0.07,0.89-0.07c0.39,0,0.74,0.11,1.06,0.32c0.32,0.21,0.55,0.51,0.68,0.89c0.2,0.5,0.32,1.02,0.34,1.55
		c0.02,0.54,0.05,1.08,0.07,1.63c0.05,1.91,0.06,3.81,0.03,5.71c-0.02,1.91-0.03,3.7-0.03,5.39v8.93c0,0.55-0.03,1.1-0.08,1.66
		c-0.06,0.56-0.18,1.14-0.36,1.73c-0.11,0.31-0.33,0.56-0.65,0.75c-0.25,0.17-0.52,0.27-0.82,0.3c-0.3,0.04-0.59,0.03-0.89-0.02
		c-0.34-0.07-0.63-0.21-0.85-0.43c-0.21-0.19-0.36-0.42-0.46-0.68c-0.1-0.26-0.18-0.51-0.24-0.75c-0.06-0.24-0.08-0.54-0.08-0.89
		v-0.57c-0.36,0-0.79,0.01-1.28,0.02c-0.49,0.01-0.97,0.02-1.43,0.02s-0.88,0-1.25,0S97.97,43.37,97.88,43.34z"/>
	<path class="st5" d="M162.33,18.59c0.02,0,0.14,0,0.36,0c0.22,0,0.46,0,0.72,0s0.61,0.01,1.04,0.04c0.73,0,1.32,0.14,1.78,0.41
		c0.46,0.27,0.81,0.61,1.08,1c0.26,0.39,0.44,0.82,0.53,1.27c0.09,0.45,0.14,0.86,0.14,1.21v18.11c0,0.02-0.01,0.16-0.02,0.41
		c-0.01,0.25-0.04,0.54-0.09,0.88c-0.05,0.33-0.11,0.68-0.19,1.04c-0.08,0.36-0.19,0.65-0.32,0.89c-0.18,0.29-0.45,0.51-0.8,0.68
		c-0.35,0.17-0.71,0.29-1.06,0.38c-0.35,0.08-0.68,0.13-0.97,0.14c-0.3,0.01-0.46,0.02-0.48,0.02h-6.18c-0.21,0-0.52-0.02-0.94-0.05
		c-0.42-0.04-0.86-0.12-1.31-0.25c-0.46-0.13-0.88-0.33-1.28-0.59c-0.4-0.26-0.69-0.62-0.87-1.07c-0.32-0.79-0.5-1.61-0.53-2.46
		c-0.03-0.86-0.04-1.7-0.02-2.54V25.23c0-0.07-0.02-0.32-0.05-0.73s-0.05-0.89-0.05-1.43s0.03-1.08,0.1-1.64
		c0.07-0.56,0.19-1.03,0.38-1.41c0.23-0.48,0.53-0.82,0.92-1.04c0.39-0.21,0.81-0.35,1.28-0.41c0.47-0.06,0.95-0.07,1.43-0.04
		s0.94,0.05,1.35,0.05c0.73,0,1.42,0.01,2.07,0.02C160.98,18.62,161.65,18.62,162.33,18.59z M157.27,39.63
		c0.02,0.19,0.1,0.38,0.22,0.57c0.13,0.19,0.31,0.31,0.56,0.36l3.18,0.04c0.27-0.02,0.55-0.05,0.82-0.09
		c0.27-0.04,0.52-0.13,0.75-0.27c0.25-0.14,0.39-0.39,0.41-0.75c0.02-0.36,0.02-0.7,0-1.04v-0.39c0-0.31,0-0.58,0-0.8
		c0-0.23,0-0.45,0-0.66s0-0.43,0-0.66c0-0.23,0-0.49,0-0.8v-8.61c0-0.31-0.01-0.61-0.03-0.89c-0.02-0.26-0.04-0.52-0.05-0.79
		c-0.01-0.26-0.03-0.49-0.05-0.68c-0.05-0.45-0.2-0.73-0.46-0.84c-0.26-0.11-0.46-0.16-0.6-0.16h-0.03l-2.9-0.07
		c-0.55,0-0.95,0.08-1.2,0.25c-0.25,0.17-0.43,0.42-0.55,0.75c-0.02,0.12-0.04,0.29-0.05,0.52c-0.01,0.23-0.02,0.46-0.02,0.71
		s0,0.5,0,0.75s0,0.45,0,0.59V39.63z M177.12,28.84c0.11,0,0.22,0.01,0.32,0.04c0.1,0.02,0.21,0.04,0.32,0.04
		c0.11,0.02,0.24,0.04,0.38,0.05c0.14,0.01,0.27,0.03,0.41,0.05c0.25,0.05,0.5,0.14,0.75,0.27c0.25,0.13,0.43,0.33,0.55,0.59
		c0.16,0.26,0.24,0.57,0.24,0.93c0,0.19-0.01,0.36-0.02,0.52c-0.01,0.16-0.04,0.33-0.08,0.52c-0.05,0.19-0.1,0.39-0.15,0.61
		s-0.17,0.38-0.32,0.5c-0.32,0.24-0.63,0.39-0.92,0.46c-0.36,0.05-0.81,0.06-1.33,0.04c-0.52-0.02-0.97-0.02-1.33,0
		c-0.02,0-0.05,0.01-0.07,0.04h-0.03l-0.03,0.04v0.11c0,0.29,0,0.63,0,1.02c0,0.39,0,0.8,0,1.21s0,0.82,0,1.21c0,0.39,0,0.74,0,1.05
		c0.04,1.24,0.04,2.45,0,3.64v0.5c0,0.31-0.01,0.65-0.02,1.02c-0.01,0.37-0.04,0.73-0.09,1.09c-0.05,0.36-0.13,0.7-0.24,1.02
		s-0.27,0.59-0.48,0.8c-0.27,0.33-0.64,0.5-1.09,0.5l-0.07-0.04c-0.55-0.02-0.99-0.19-1.32-0.5c-0.33-0.31-0.58-0.69-0.75-1.14
		c-0.17-0.45-0.28-0.92-0.33-1.41c-0.05-0.49-0.07-0.92-0.07-1.3V21.09c0-0.02,0-0.14,0-0.34c0-0.2,0.02-0.44,0.07-0.71
		c0.05-0.27,0.12-0.56,0.22-0.86s0.24-0.54,0.43-0.73c0.16-0.17,0.39-0.29,0.7-0.38c0.31-0.08,0.59-0.13,0.84-0.13
		c0.5,0,0.92,0.18,1.26,0.54c0.32,0.33,0.51,0.69,0.56,1.05c0.06,0.37,0.11,0.76,0.15,1.16c0.02,0.1,0.03,0.24,0.03,0.43
		c0.05,0.41,0.07,0.82,0.09,1.25c0.01,0.43,0.03,0.86,0.05,1.29c0,0.26,0.01,0.52,0.02,0.77c0.01,0.25,0.02,0.51,0.02,0.77
		c-0.02,0.14-0.03,0.28-0.02,0.41c0.01,0.13,0.02,0.26,0.02,0.38v2c0,0.12,0,0.25,0,0.39c0,0.14,0.02,0.27,0.07,0.39
		c0,0.02,0.11,0.04,0.34,0.04c0.23,0,0.35,0,0.38,0c0.21,0.05,0.36,0.06,0.48,0.04H177.12z"/>
	<path class="st5" d="M192.32,44.24c-0.36-0.02-0.72-0.08-1.08-0.16c-0.35-0.08-0.67-0.2-0.94-0.36c-0.27-0.16-0.5-0.38-0.67-0.66
		s-0.26-0.67-0.26-1.14s0.15-0.89,0.44-1.25c0.18-0.19,0.41-0.33,0.68-0.43c0.27-0.09,0.53-0.17,0.79-0.21
		c0.25-0.05,0.47-0.07,0.67-0.07s0.3,0,0.32,0l18.68,0.04c0.59,0,1.13,0.01,1.62,0.02c0.49,0.01,0.93,0.18,1.31,0.52
		c0.48,0.45,0.72,0.96,0.72,1.54c0,0.36-0.1,0.68-0.31,0.98s-0.48,0.51-0.82,0.63c-0.46,0.19-0.93,0.32-1.42,0.39
		s-0.97,0.12-1.45,0.14c-1.66,0.07-3.3,0.09-4.92,0.07c-1.62-0.02-3.19-0.04-4.71-0.04c-1.64,0-3.24,0.01-4.8,0.04
		C194.63,44.3,193.34,44.28,192.32,44.24z M197.41,33.91c-0.25,0.19-0.51,0.41-0.77,0.64c-0.26,0.24-0.53,0.48-0.8,0.73
		c-0.27,0.25-0.56,0.48-0.85,0.7s-0.63,0.37-0.99,0.46c-0.41,0.12-0.85,0.11-1.33-0.04c-0.48-0.14-0.84-0.39-1.09-0.75
		c-0.18-0.29-0.27-0.57-0.27-0.86s0.05-0.57,0.15-0.84c0.1-0.27,0.23-0.54,0.39-0.8c0.16-0.26,0.33-0.5,0.51-0.71
		c0.68-0.83,1.38-1.63,2.1-2.38s1.46-1.48,2.24-2.2c0.25-0.21,0.53-0.51,0.85-0.88c0.32-0.37,0.62-0.73,0.89-1.09
		c0.32-0.43,0.65-0.86,0.99-1.29c0-0.43,0.01-0.86,0.03-1.29c0.02-0.36,0.04-0.75,0.05-1.18c0.01-0.43,0.04-0.81,0.09-1.14
		c0.04-0.43,0.15-0.83,0.31-1.21s0.33-0.67,0.51-0.86c0.3-0.29,0.69-0.47,1.2-0.55c0.5-0.08,0.93-0.06,1.3,0.05
		c0.52,0.17,0.91,0.45,1.14,0.86c0.24,0.4,0.38,0.88,0.43,1.43c0.02,0.21,0.04,0.51,0.05,0.89c0.01,0.38,0.03,0.77,0.07,1.16
		c0.03,0.39,0.08,0.77,0.14,1.13c0.06,0.36,0.15,0.63,0.29,0.82c0.18,0.29,0.36,0.56,0.53,0.82c0.17,0.26,0.37,0.52,0.6,0.79
		c0.8,0.93,1.58,1.86,2.36,2.8c0.77,0.94,1.57,1.86,2.39,2.77c0.27,0.29,0.53,0.64,0.79,1.07c0.25,0.43,0.43,0.86,0.53,1.3
		c0.1,0.44,0.09,0.86-0.03,1.25c-0.13,0.39-0.43,0.71-0.91,0.95c-0.34,0.17-0.67,0.23-0.99,0.2c-0.32-0.04-0.63-0.13-0.92-0.29
		c-0.3-0.15-0.58-0.35-0.84-0.59c-0.26-0.24-0.5-0.48-0.7-0.71l-5.74-5.68L197.41,33.91z"/>
	<path class="st5" d="M227.46,44.24c-0.36-0.02-0.72-0.08-1.08-0.16c-0.35-0.08-0.67-0.2-0.94-0.36c-0.27-0.16-0.5-0.38-0.67-0.66
		s-0.26-0.67-0.26-1.14s0.15-0.89,0.44-1.25c0.18-0.19,0.41-0.33,0.68-0.43c0.27-0.09,0.53-0.17,0.79-0.21
		c0.25-0.05,0.47-0.07,0.67-0.07s0.3,0,0.32,0l18.68,0.04c0.59,0,1.13,0.01,1.62,0.02c0.49,0.01,0.93,0.18,1.31,0.52
		c0.48,0.45,0.72,0.96,0.72,1.54c0,0.36-0.1,0.68-0.31,0.98s-0.48,0.51-0.82,0.63c-0.46,0.19-0.93,0.32-1.42,0.39
		s-0.97,0.12-1.45,0.14c-1.66,0.07-3.3,0.09-4.92,0.07c-1.62-0.02-3.19-0.04-4.71-0.04c-1.64,0-3.24,0.01-4.8,0.04
		C229.78,44.3,228.48,44.28,227.46,44.24z M228.01,27.52c0.21,0.02,0.44,0.01,0.7-0.05c0.26-0.06,0.51-0.09,0.73-0.09
		c0.2-0.02,0.57-0.04,1.09-0.05c0.52-0.01,1.12-0.02,1.79-0.04c0.67-0.01,1.38-0.02,2.13-0.02c0.75,0,1.47-0.01,2.15-0.02
		c0.68-0.01,1.3-0.02,1.84-0.02c0.55,0,0.94,0,1.2,0c0.46,0,0.93,0,1.42,0c0.49,0,1,0.01,1.52,0.04c0-0.48,0-1.04,0-1.68
		c0-0.64-0.02-1.2-0.07-1.68c-0.25,0-0.65,0-1.2,0c-0.55,0-1.17,0-1.86,0s-1.42,0-2.19,0s-1.49,0.01-2.17,0.02
		c-0.68,0.01-1.3,0.02-1.86,0.02s-0.96,0-1.21,0c-0.73,0-1.5-0.01-2.31-0.04c-0.81-0.02-1.65-0.1-2.51-0.21
		c-0.43-0.05-0.75-0.32-0.94-0.8c-0.19-0.49-0.28-1.04-0.26-1.66c0-0.55,0.19-0.96,0.56-1.25c0.38-0.29,0.77-0.49,1.18-0.61
		c0.5-0.14,0.98-0.22,1.45-0.23c0.47-0.01,0.96-0.03,1.49-0.05c0.32,0,0.64,0.01,0.96,0.02c0.32,0.01,0.64,0.02,0.96,0.02h7.89
		c0.14,0,0.28-0.01,0.43-0.02c0.15-0.01,0.29-0.01,0.43,0.02h0.99c0.23,0,0.44,0.01,0.65,0.02c0.21,0.01,0.42,0.02,0.65,0.02
		c0.2,0,0.41,0,0.61,0s0.42,0.01,0.65,0.04c0.09,0,0.19,0,0.29,0s0.21,0.02,0.32,0.07c0.05,0.02,0.1,0.05,0.17,0.07
		c0.07,0.02,0.13,0.05,0.17,0.07c0.48,0.24,0.84,0.57,1.09,1c0.21,0.36,0.34,0.75,0.41,1.18s0.1,0.85,0.1,1.25
		c0,1.14,0.01,2.38,0.03,3.71c0.02,1.33,0.01,2.57-0.03,3.71c-0.02,0.33-0.04,0.78-0.05,1.34c-0.01,0.56-0.05,1.14-0.1,1.75
		c-0.06,0.61-0.13,1.18-0.22,1.71c-0.09,0.54-0.22,0.96-0.38,1.27c-0.18,0.36-0.44,0.64-0.77,0.86s-0.68,0.35-1.04,0.39
		c-0.37,0.05-0.72,0.01-1.06-0.13c-0.34-0.13-0.61-0.38-0.82-0.73c-0.21-0.36-0.35-0.75-0.43-1.18c-0.08-0.43-0.12-0.86-0.12-1.3
		c0-0.44,0.02-0.89,0.05-1.34c0.03-0.45,0.05-0.89,0.05-1.32h-14.38c-0.21-0.12-0.38-0.23-0.51-0.32c-0.14-0.09-0.28-0.21-0.43-0.36
		c-0.15-0.14-0.27-0.3-0.36-0.46c-0.16-0.33-0.24-0.71-0.24-1.14c0-0.48,0.09-0.84,0.27-1.11c0.16-0.26,0.33-0.43,0.51-0.5
		C227.64,27.63,227.82,27.57,228.01,27.52z"/>
</g>
<rect x="112.43" y="22.79" class="st6" width="34.15" height="22.32"/>
<line class="st7" x1="0.01" y1="57.02" x2="259.01" y2="55.53"/>
<path class="st3" d="M142.52,45.11H116.5c-2.24,0-4.06-1.82-4.06-4.06v-14.2c0-2.24,1.82-4.06,4.06-4.06h26.03
	c2.24,0,4.06,1.82,4.06,4.06v14.2C146.59,43.29,144.77,45.11,142.52,45.11z"/>
<line class="st8" x1="109.53" y1="20.79" x2="119.49" y2="28.23"/>
<line class="st9" x1="108.82" y1="48.11" x2="120.2" y2="39.19"/>
<line class="st8" x1="149.49" y1="20.79" x2="139.53" y2="28.23"/>
<line class="st9" x1="146.07" y1="45.11" x2="138.95" y2="39.16"/>
<rect x="118.12" y="27.26" class="st6" width="22.77" height="13.39"/>
<rect x="128.09" y="15.35" class="st4" width="2.85" height="4.46"/>
<line class="st10" x1="9.51" y1="63.4" x2="249.51" y2="62.4"/>
<g>
	<path class="st11" d="M160.77,68.18c-0.07-0.23-0.2-0.44-0.39-0.65s-0.48-0.3-0.88-0.3c-0.44,0-0.78,0.17-1.03,0.52
		s-0.38,0.81-0.38,1.4c0,0.58,0.13,1.05,0.38,1.4s0.59,0.54,1.03,0.54c0.38,0,0.68-0.11,0.88-0.34c0.2-0.23,0.33-0.47,0.4-0.73h0.77
		c-0.08,0.4-0.29,0.79-0.62,1.18s-0.8,0.59-1.43,0.59c-0.68,0-1.21-0.24-1.6-0.73s-0.59-1.12-0.59-1.9s0.2-1.41,0.59-1.89
		c0.39-0.48,0.92-0.72,1.6-0.72c0.64,0,1.12,0.19,1.45,0.57s0.53,0.74,0.6,1.08H160.77z"/>
	<path class="st11" d="M164.89,68.45c0.32,0.37,0.48,0.83,0.48,1.39c0,0.55-0.16,1.01-0.48,1.39c-0.32,0.38-0.75,0.56-1.29,0.56
		c-0.54,0-0.96-0.19-1.28-0.56c-0.31-0.38-0.47-0.84-0.47-1.39c0-0.55,0.16-1.02,0.47-1.39c0.31-0.37,0.74-0.55,1.28-0.55
		C164.14,67.9,164.57,68.08,164.89,68.45z M164.32,70.74c0.18-0.24,0.26-0.54,0.26-0.91c0-0.37-0.09-0.67-0.26-0.9
		c-0.18-0.23-0.42-0.35-0.72-0.35c-0.3,0-0.54,0.12-0.71,0.35c-0.17,0.23-0.26,0.53-0.26,0.9c0,0.37,0.09,0.67,0.26,0.91
		s0.41,0.36,0.71,0.36C163.9,71.1,164.14,70.98,164.32,70.74z"/>
	<path class="st11" d="M167.81,68.66c-0.13,0-0.23,0.01-0.32,0.02c-0.09,0.02-0.18,0.05-0.28,0.1c-0.18,0.1-0.31,0.24-0.4,0.42
		s-0.13,0.42-0.13,0.72v1.71h-0.73v-3.61h0.73v0.46c0.07-0.11,0.16-0.2,0.26-0.29c0.1-0.09,0.21-0.16,0.34-0.21
		c0.09-0.05,0.2-0.07,0.33-0.08s0.2-0.02,0.21-0.02V68.66z"/>
	<path class="st11" d="M170.9,68.45c0.32,0.37,0.48,0.83,0.48,1.39c0,0.55-0.16,1.01-0.48,1.39c-0.32,0.38-0.75,0.56-1.29,0.56
		c-0.54,0-0.96-0.19-1.28-0.56c-0.31-0.38-0.47-0.84-0.47-1.39c0-0.55,0.16-1.02,0.47-1.39c0.31-0.37,0.74-0.55,1.28-0.55
		C170.15,67.9,170.58,68.08,170.9,68.45z M170.33,70.74c0.18-0.24,0.26-0.54,0.26-0.91c0-0.37-0.09-0.67-0.26-0.9
		c-0.18-0.23-0.42-0.35-0.72-0.35c-0.3,0-0.54,0.12-0.71,0.35c-0.17,0.23-0.26,0.53-0.26,0.9c0,0.37,0.09,0.67,0.26,0.91
		c0.17,0.24,0.41,0.36,0.71,0.36C169.91,71.1,170.15,70.98,170.33,70.74z"/>
	<path class="st11" d="M174.28,71.65l-0.01-2.12c0-0.3-0.06-0.52-0.18-0.66s-0.3-0.21-0.55-0.21c-0.26,0-0.47,0.09-0.63,0.27
		c-0.16,0.18-0.24,0.41-0.24,0.69v2.03h-0.73v-3.59h0.73v0.32c0.15-0.14,0.32-0.26,0.52-0.36c0.2-0.1,0.44-0.13,0.73-0.09
		c0.38,0.04,0.65,0.19,0.82,0.47c0.17,0.28,0.26,0.54,0.26,0.79v2.45H174.28z"/>
	<path class="st11" d="M178.16,71.63c-0.03-0.05-0.05-0.11-0.07-0.19c-0.02-0.08-0.04-0.16-0.05-0.25
		c-0.13,0.14-0.31,0.26-0.52,0.37c-0.21,0.11-0.44,0.18-0.69,0.2c-0.34,0.03-0.64-0.03-0.9-0.19c-0.26-0.15-0.41-0.39-0.45-0.72
		c-0.04-0.33,0.02-0.6,0.19-0.8c0.17-0.21,0.39-0.35,0.65-0.43c0.21-0.07,0.42-0.1,0.63-0.12c0.21-0.01,0.42-0.04,0.61-0.07
		c0.1-0.02,0.21-0.05,0.32-0.09c0.11-0.04,0.17-0.13,0.17-0.27c0-0.13-0.06-0.24-0.19-0.35c-0.13-0.11-0.34-0.17-0.63-0.17
		c-0.28,0-0.5,0.06-0.65,0.19c-0.15,0.12-0.22,0.27-0.2,0.45h-0.7c-0.04-0.39,0.1-0.7,0.42-0.93c0.31-0.23,0.69-0.35,1.12-0.35
		c0.42,0,0.78,0.1,1.1,0.31c0.32,0.21,0.47,0.5,0.47,0.88v1.95c0,0.16,0.02,0.29,0.05,0.4c0.04,0.11,0.06,0.17,0.06,0.18H178.16z
		 M178.04,69.86c-0.05,0.03-0.11,0.05-0.17,0.07s-0.12,0.04-0.18,0.06c-0.14,0.03-0.31,0.06-0.51,0.09
		c-0.2,0.03-0.35,0.06-0.46,0.09c-0.17,0.06-0.3,0.13-0.39,0.22s-0.13,0.21-0.09,0.37c0.03,0.16,0.13,0.26,0.29,0.3
		c0.16,0.04,0.32,0.05,0.47,0.03c0.32-0.04,0.57-0.15,0.76-0.33s0.28-0.36,0.28-0.53V69.86z"/>
	<path class="st11" d="M185.61,71.64V68.3l-1.1,3.34h-0.82l-1.1-3.34v3.35h-0.73v-5.01h0.87l1.37,4.03l1.36-4.03h0.87v5H185.61z"/>
	<path class="st11" d="M189.56,71.63c-0.03-0.05-0.05-0.11-0.07-0.19c-0.02-0.08-0.04-0.16-0.05-0.25
		c-0.13,0.14-0.31,0.26-0.52,0.37c-0.21,0.11-0.44,0.18-0.69,0.2c-0.34,0.03-0.64-0.03-0.9-0.19c-0.26-0.15-0.41-0.39-0.45-0.72
		c-0.04-0.33,0.02-0.6,0.19-0.8c0.17-0.21,0.39-0.35,0.65-0.43c0.21-0.07,0.42-0.1,0.63-0.12c0.21-0.01,0.42-0.04,0.61-0.07
		c0.1-0.02,0.21-0.05,0.32-0.09c0.11-0.04,0.17-0.13,0.17-0.27c0-0.13-0.06-0.24-0.19-0.35c-0.13-0.11-0.34-0.17-0.63-0.17
		c-0.28,0-0.5,0.06-0.65,0.19c-0.15,0.12-0.22,0.27-0.2,0.45h-0.7c-0.04-0.39,0.1-0.7,0.42-0.93c0.31-0.23,0.69-0.35,1.13-0.35
		c0.42,0,0.78,0.1,1.1,0.31s0.48,0.5,0.48,0.88v1.95c0,0.16,0.02,0.29,0.05,0.4c0.04,0.11,0.06,0.17,0.06,0.18H189.56z
		 M189.44,69.86c-0.05,0.03-0.11,0.05-0.17,0.07c-0.06,0.02-0.12,0.04-0.18,0.06c-0.14,0.03-0.31,0.06-0.5,0.09
		c-0.2,0.03-0.35,0.06-0.46,0.09c-0.17,0.06-0.3,0.13-0.39,0.22s-0.13,0.21-0.09,0.37c0.03,0.16,0.13,0.26,0.29,0.3
		c0.16,0.04,0.32,0.05,0.47,0.03c0.32-0.04,0.57-0.15,0.76-0.33c0.19-0.18,0.28-0.36,0.28-0.53V69.86z"/>
	<path class="st11" d="M193.56,70.06c0.14,0.14,0.2,0.33,0.18,0.57c-0.02,0.32-0.17,0.6-0.46,0.83s-0.64,0.34-1.05,0.34
		c-0.62,0-1.04-0.17-1.26-0.5c-0.23-0.33-0.35-0.61-0.36-0.84h0.7c0.02,0.17,0.1,0.32,0.26,0.45c0.15,0.13,0.36,0.19,0.63,0.19
		c0.22,0,0.4-0.04,0.53-0.12c0.14-0.08,0.21-0.18,0.24-0.32c0.01-0.09-0.01-0.17-0.08-0.24c-0.06-0.07-0.16-0.13-0.28-0.18
		c-0.19-0.08-0.39-0.15-0.62-0.19c-0.22-0.04-0.41-0.09-0.55-0.14c-0.23-0.08-0.41-0.2-0.54-0.36c-0.13-0.16-0.19-0.36-0.17-0.61
		c0.02-0.27,0.15-0.51,0.41-0.74c0.25-0.23,0.6-0.34,1.03-0.34c0.48,0,0.84,0.13,1.09,0.4c0.25,0.27,0.37,0.53,0.35,0.79h-0.7
		c0-0.1-0.05-0.21-0.17-0.33c-0.12-0.12-0.31-0.18-0.58-0.18c-0.23,0-0.41,0.04-0.52,0.12c-0.11,0.08-0.17,0.18-0.18,0.28
		c0,0.13,0.04,0.22,0.13,0.28c0.09,0.05,0.2,0.1,0.32,0.14c0.16,0.05,0.35,0.09,0.59,0.14s0.43,0.11,0.6,0.2
		C193.27,69.8,193.43,69.91,193.56,70.06z"/>
	<path class="st11" d="M196.74,71.64l-1.36-1.7l-0.38,0.34v1.37h-0.73v-5.01h0.73v2.74l1.4-1.38h0.89l-1.41,1.46l1.7,2.18H196.74z"
		/>
	<path class="st11" d="M204.05,71.64V68.3l-1.1,3.34h-0.82l-1.1-3.34v3.35h-0.73v-5.01h0.87l1.37,4.03l1.36-4.03h0.87v5H204.05z"/>
	<path class="st11" d="M207.99,71.63c-0.03-0.05-0.05-0.11-0.07-0.19c-0.02-0.08-0.04-0.16-0.05-0.25
		c-0.13,0.14-0.31,0.26-0.52,0.37c-0.21,0.11-0.44,0.18-0.69,0.2c-0.34,0.03-0.64-0.03-0.9-0.19c-0.26-0.15-0.41-0.39-0.45-0.72
		c-0.04-0.33,0.02-0.6,0.19-0.8c0.17-0.21,0.39-0.35,0.65-0.43c0.21-0.07,0.42-0.1,0.63-0.12c0.21-0.01,0.42-0.04,0.61-0.07
		c0.1-0.02,0.21-0.05,0.32-0.09c0.11-0.04,0.17-0.13,0.17-0.27c0-0.13-0.06-0.24-0.19-0.35c-0.13-0.11-0.34-0.17-0.63-0.17
		c-0.28,0-0.5,0.06-0.65,0.19c-0.15,0.12-0.22,0.27-0.2,0.45h-0.7c-0.04-0.39,0.1-0.7,0.42-0.93c0.31-0.23,0.69-0.35,1.12-0.35
		c0.42,0,0.78,0.1,1.1,0.31c0.32,0.21,0.47,0.5,0.47,0.88v1.95c0,0.16,0.02,0.29,0.05,0.4c0.04,0.11,0.06,0.17,0.06,0.18H207.99z
		 M207.88,69.86c-0.05,0.03-0.11,0.05-0.17,0.07s-0.12,0.04-0.18,0.06c-0.14,0.03-0.31,0.06-0.51,0.09
		c-0.2,0.03-0.35,0.06-0.46,0.09c-0.17,0.06-0.3,0.13-0.39,0.22s-0.13,0.21-0.09,0.37c0.03,0.16,0.13,0.26,0.29,0.3
		c0.16,0.04,0.32,0.05,0.47,0.03c0.32-0.04,0.57-0.15,0.76-0.33s0.28-0.36,0.28-0.53V69.86z"/>
	<path class="st11" d="M212.36,68.42c0.3,0.35,0.46,0.82,0.46,1.41c0,0.59-0.15,1.07-0.46,1.42s-0.7,0.53-1.18,0.53
		c-0.21,0-0.41-0.04-0.59-0.12c-0.19-0.08-0.35-0.2-0.51-0.35v1.32h-0.73v-4.58h0.73v0.31c0.15-0.15,0.32-0.27,0.51-0.35
		s0.38-0.12,0.59-0.12C211.66,67.9,212.06,68.07,212.36,68.42z M211.78,70.75c0.17-0.23,0.26-0.53,0.26-0.91
		c0-0.39-0.09-0.69-0.26-0.91s-0.41-0.33-0.73-0.33c-0.31,0-0.55,0.11-0.72,0.33s-0.25,0.53-0.25,0.91c0,0.38,0.08,0.69,0.25,0.91
		s0.41,0.34,0.72,0.34C211.36,71.09,211.6,70.97,211.78,70.75z"/>
	<path class="st11" d="M215.34,72.63v-0.67h3.47v0.67H215.34z"/>
	<path class="st11" d="M224.9,69.57c0.15,0.25,0.21,0.52,0.17,0.82c-0.04,0.38-0.22,0.72-0.53,1.01c-0.31,0.29-0.75,0.44-1.32,0.44
		c-0.63,0-1.11-0.21-1.43-0.62c-0.32-0.41-0.48-0.83-0.48-1.27h0.74c0.01,0.36,0.13,0.65,0.35,0.86c0.22,0.21,0.5,0.32,0.82,0.32
		c0.33,0,0.58-0.08,0.74-0.22s0.27-0.33,0.31-0.55c0.04-0.17,0.02-0.32-0.07-0.44c-0.09-0.12-0.22-0.22-0.39-0.3
		c-0.21-0.11-0.43-0.17-0.67-0.19c-0.24-0.02-0.48-0.08-0.72-0.18c-0.32-0.14-0.57-0.31-0.74-0.52c-0.17-0.21-0.25-0.49-0.23-0.83
		c0.02-0.33,0.17-0.65,0.45-0.97s0.71-0.47,1.27-0.47c0.66,0,1.12,0.21,1.37,0.62c0.25,0.41,0.37,0.76,0.36,1.05h-0.73
		c0-0.26-0.09-0.49-0.25-0.68c-0.16-0.19-0.41-0.29-0.76-0.29c-0.32,0-0.55,0.08-0.7,0.24s-0.22,0.33-0.23,0.51
		c0,0.2,0.05,0.35,0.18,0.45c0.12,0.1,0.25,0.18,0.4,0.23c0.17,0.06,0.39,0.11,0.66,0.15s0.53,0.13,0.78,0.25
		C224.54,69.14,224.75,69.33,224.9,69.57z"/>
	<path class="st11" d="M226.13,70.09c0.03,0.28,0.13,0.52,0.31,0.72c0.18,0.2,0.4,0.3,0.66,0.3c0.25,0,0.44-0.06,0.58-0.18
		c0.14-0.12,0.22-0.23,0.25-0.33h0.79c-0.08,0.26-0.24,0.52-0.49,0.79c-0.25,0.27-0.63,0.4-1.13,0.4c-0.51,0-0.94-0.19-1.27-0.57
		c-0.33-0.38-0.5-0.84-0.5-1.39c0-0.55,0.16-1.02,0.49-1.4c0.32-0.38,0.75-0.56,1.28-0.56c0.46,0,0.88,0.18,1.24,0.54
		c0.36,0.36,0.53,0.92,0.5,1.68H226.13z M228.07,69.46c-0.03-0.27-0.13-0.49-0.3-0.66c-0.17-0.17-0.39-0.26-0.66-0.26
		c-0.26,0-0.47,0.08-0.65,0.25s-0.28,0.39-0.33,0.67H228.07z"/>
	<path class="st11" d="M230.24,71.64c0,0.18-0.02,0.33-0.05,0.44s-0.08,0.21-0.14,0.28c-0.07,0.08-0.16,0.14-0.27,0.19
		c-0.11,0.05-0.23,0.07-0.38,0.07h-0.38V72c0.06,0,0.13,0,0.19-0.01c0.07-0.01,0.13-0.04,0.18-0.08c0.05-0.05,0.09-0.1,0.1-0.16
		s0.02-0.13,0.02-0.21v-3.51h0.72V71.64z M229.52,67.38v-0.74h0.72v0.74H229.52z"/>
	<path class="st11" d="M233.82,68.45c0.32,0.37,0.48,0.83,0.48,1.39c0,0.55-0.16,1.01-0.48,1.39c-0.32,0.38-0.75,0.56-1.29,0.56
		c-0.54,0-0.96-0.19-1.28-0.56c-0.31-0.38-0.47-0.84-0.47-1.39c0-0.55,0.16-1.02,0.47-1.39c0.31-0.37,0.74-0.55,1.28-0.55
		C233.07,67.9,233.5,68.08,233.82,68.45z M233.25,70.74c0.18-0.24,0.26-0.54,0.26-0.91c0-0.37-0.09-0.67-0.26-0.9
		c-0.18-0.23-0.42-0.35-0.72-0.35c-0.3,0-0.54,0.12-0.71,0.35c-0.17,0.23-0.26,0.53-0.26,0.9c0,0.37,0.09,0.67,0.26,0.91
		s0.41,0.36,0.71,0.36C232.83,71.1,233.07,70.98,233.25,70.74z"/>
	<path class="st11" d="M237.2,71.65l-0.01-2.12c0-0.3-0.06-0.52-0.18-0.66s-0.3-0.21-0.54-0.21c-0.26,0-0.47,0.09-0.63,0.27
		c-0.16,0.18-0.24,0.41-0.24,0.69v2.03h-0.73v-3.59h0.73v0.32c0.15-0.14,0.32-0.26,0.52-0.36c0.2-0.1,0.44-0.13,0.73-0.09
		c0.38,0.04,0.65,0.19,0.82,0.47c0.17,0.28,0.26,0.54,0.26,0.79v2.45H237.2z"/>
	<path class="st11" d="M241.89,71.05c0,0.59-0.18,1-0.54,1.23c-0.36,0.23-0.73,0.34-1.12,0.34c-0.51,0-0.9-0.13-1.18-0.39
		c-0.28-0.26-0.43-0.54-0.46-0.86h0.71c0.01,0.14,0.09,0.28,0.25,0.41c0.16,0.13,0.39,0.19,0.68,0.19c0.3,0,0.53-0.08,0.69-0.23
		c0.16-0.15,0.23-0.37,0.23-0.66v-0.3c-0.15,0.15-0.32,0.28-0.51,0.36s-0.39,0.13-0.6,0.13c-0.46,0-0.85-0.16-1.16-0.48
		c-0.31-0.32-0.47-0.74-0.47-1.25c0-0.51,0.16-0.92,0.46-1.21c0.31-0.3,0.7-0.44,1.16-0.44c0.21,0,0.41,0.04,0.59,0.11
		c0.19,0.07,0.34,0.17,0.48,0.29c0-0.17,0.01-0.26,0.01-0.27h0.76V71.05z M240.89,70.31c0.18-0.19,0.28-0.44,0.28-0.75
		c0-0.32-0.09-0.56-0.28-0.73s-0.42-0.25-0.71-0.25c-0.27,0-0.5,0.08-0.69,0.25c-0.19,0.17-0.28,0.41-0.28,0.73
		c0,0.32,0.09,0.57,0.28,0.76c0.18,0.19,0.42,0.28,0.69,0.28C240.47,70.59,240.71,70.5,240.89,70.31z"/>
	<path class="st11" d="M248.6,70.1c0,0.46-0.16,0.85-0.48,1.19c-0.33,0.33-0.79,0.5-1.37,0.5c-0.59,0-1.04-0.17-1.36-0.5
		c-0.32-0.33-0.48-0.73-0.48-1.19v-3.45h0.74v3.33c0,0.23,0.07,0.48,0.21,0.73s0.43,0.38,0.88,0.38c0.45,0,0.75-0.13,0.9-0.38
		s0.22-0.49,0.22-0.73v-3.33h0.73V70.1z"/>
	<path class="st11" d="M251.67,71.65l-0.01-2.12c0-0.3-0.06-0.52-0.18-0.66s-0.3-0.21-0.55-0.21c-0.26,0-0.47,0.09-0.63,0.27
		c-0.16,0.18-0.24,0.41-0.24,0.69v2.03h-0.73v-3.59h0.73v0.32c0.15-0.14,0.32-0.26,0.52-0.36c0.2-0.1,0.44-0.13,0.73-0.09
		c0.38,0.04,0.65,0.19,0.82,0.47c0.17,0.28,0.26,0.54,0.26,0.79v2.45H251.67z"/>
	<path class="st11" d="M253.13,67.38v-0.74h0.72v0.74H253.13z M253.13,71.63v-3.62h0.72v3.62H253.13z"/>
	<path class="st11" d="M256.42,71.64h-0.84l-1.3-3.59h0.75l0.98,2.67l0.98-2.67h0.75L256.42,71.64z"/>
</g>
</svg>
