<?xml version="1.0" encoding="utf-8"?>
<!-- Generator: Adobe Illustrator 23.1.0, SVG Export Plug-In . SVG Version: 6.00 Build 0)  -->
<svg version="1.1" id="레이어_1" xmlns="http://www.w3.org/2000/svg" xmlns:xlink="http://www.w3.org/1999/xlink" x="0px"
	 y="0px" viewBox="0 0 241.87 54.06" style="enable-background:new 0 0 241.87 54.06;" xml:space="preserve">
<style type="text/css">
	.st0{fill:none;stroke:#B8DA4E;stroke-miterlimit:10;}
	.st1{fill:none;stroke:#B8DA4E;stroke-width:2;stroke-miterlimit:10;}
	.st2{fill:#FFFFFF;stroke:#FFFFFF;stroke-width:0.25;stroke-miterlimit:10;}
	.st3{fill:#B8DA4E;}
	.st4{fill:none;}
	.st5{font-family:'BMJUA';}
	.st6{font-size:35.7167px;}
	.st7{fill:#5A9C1F;}
	.st8{fill:#FFFFFF;}
	.st9{fill:#FFFFFF;stroke:#FFFFFF;stroke-width:2;stroke-miterlimit:10;}
	.st10{fill:none;stroke:#FFFFFF;stroke-width:2;stroke-miterlimit:10;}
</style>
<path class="st0" d="M125.64,31.4h-9.85c-5.14,0-9.3-4.76-9.3-10.64v0c0-1.8,0.43-3.57,1.17-5.15c2.76-5.87,2.15-9.46,6.05-5.62
	c1.65,1.62,3.78,2.44,5.95,2.44l2.19,0c2.21,0,4.31-0.96,6.01-2.59c3.73-3.58,3.17-0.01,5.9,5.78c0.75,1.58,1.17,3.35,1.17,5.15v0
	C134.94,26.64,130.77,31.4,125.64,31.4z"/>
<path class="st1" d="M126.15,19.53h-0.03c-0.37,0-0.66-0.3-0.66-0.66v-1.64c0-0.37,0.3-0.66,0.66-0.66h0.03
	c0.37,0,0.66,0.3,0.66,0.66v1.64C126.81,19.23,126.51,19.53,126.15,19.53z"/>
<path class="st0" d="M115.48,19.53h-0.35c-0.28,0-0.5-0.22-0.5-0.5v-1.97c0-0.28,0.22-0.5,0.5-0.5h0.35c0.28,0,0.5,0.22,0.5,0.5
	v1.97C115.98,19.3,115.75,19.53,115.48,19.53z"/>
<line class="st2" x1="123.24" y1="17.81" x2="129.03" y2="19.76"/>
<ellipse class="st2" cx="126.81" cy="16.56" rx="0.68" ry="0.74"/>
<path class="st1" d="M115.3,19.53L115.3,19.53c-0.37,0-0.68-0.3-0.68-0.68v-1.61c0-0.37,0.3-0.68,0.68-0.68l0,0
	c0.37,0,0.68,0.3,0.68,0.68v1.61C115.98,19.22,115.67,19.53,115.3,19.53z"/>
<line class="st2" x1="112.4" y1="17.81" x2="118.2" y2="19.76"/>
<ellipse class="st2" cx="115.98" cy="16.56" rx="0.68" ry="0.74"/>
<rect x="119.94" y="3.4" class="st3" width="1" height="9"/>
<ellipse transform="matrix(0.9243 -0.3816 0.3816 0.9243 8.4647 47.4783)" class="st3" cx="123.94" cy="2.4" rx="4" ry="2"/>
<ellipse transform="matrix(0.3816 -0.9243 0.9243 0.3816 70.0962 109.5705)" class="st3" cx="116.94" cy="2.4" rx="2" ry="4"/>
<polygon class="st4" points="203.26,28.46 207.62,28.46 207.62,28.46 203.26,28.46 "/>
<text transform="matrix(0.9562 0 0 1 0 42.3428)"><tspan x="0" y="0" class="st3 st5 st6">구 해 줘     </tspan><tspan x="149.37" y="0" class="st7 st5 st6">마 스 크</tspan></text>
<rect x="103.86" y="22.79" class="st8" width="34.15" height="22.32"/>
<path class="st3" d="M133.95,45.11h-26.03c-2.24,0-4.06-1.82-4.06-4.06v-14.2c0-2.24,1.82-4.06,4.06-4.06h26.03
	c2.24,0,4.06,1.82,4.06,4.06v14.2C138.01,43.29,136.2,45.11,133.95,45.11z"/>
<line class="st9" x1="100.96" y1="20.79" x2="110.92" y2="28.23"/>
<line class="st10" x1="100.25" y1="48.11" x2="111.63" y2="39.19"/>
<line class="st9" x1="140.92" y1="20.79" x2="130.96" y2="28.23"/>
<line class="st10" x1="137.5" y1="45.11" x2="130.38" y2="39.16"/>
<rect x="109.55" y="27.26" class="st8" width="22.77" height="13.39"/>
<rect x="119.51" y="15.35" class="st4" width="2.85" height="4.46"/>
</svg>
